REM GENRE "Atmospheric Black Metal"
REM DATE 1996
PERFORMER "Forsth"
TITLE "Winterfrost (1996, Forsth/Last Epitaph/M.O.S. Records Ltd., MOS-001)"
REM REPLAYGAIN_ALBUM_GAIN -8.27 dB
REM REPLAYGAIN_ALBUM_PEAK 0.999938
FILE "Forsth - 1996 - Winterfrost.ape" WAVE
  TRACK 01 AUDIO
    TITLE "Intro"
    PERFORMER "Forsth"
    INDEX 01 00:00:00
    REM REPLAYGAIN_TRACK_GAIN +1.85 dB
    REM REPLAYGAIN_TRACK_PEAK 0.563293
  TRACK 02 AUDIO
    TITLE "Waldpfad"
    PERFORMER "Forsth"
    INDEX 01 03:34:15
    REM REPLAYGAIN_TRACK_GAIN -8.77 dB
    REM REPLAYGAIN_TRACK_PEAK 0.999938
  TRACK 03 AUDIO
    TITLE "In the gleam of the burning timberabstract"
    PERFORMER "Forsth"
    INDEX 01 07:27:11
    REM REPLAYGAIN_TRACK_GAIN -8.68 dB
    REM REPLAYGAIN_TRACK_PEAK 0.999938
  TRACK 04 AUDIO
    TITLE "Snowly mountains"
    PERFORMER "Forsth"
    INDEX 01 15:03:29
    REM REPLAYGAIN_TRACK_GAIN -7.04 dB
    REM REPLAYGAIN_TRACK_PEAK 0.999938
  TRACK 05 AUDIO
    TITLE "Mit den Gedanken im nordischen Altertum"
    PERFORMER "Forsth"
    INDEX 01 20:10:04
    REM REPLAYGAIN_TRACK_GAIN -7.50 dB
    REM REPLAYGAIN_TRACK_PEAK 0.999938
  TRACK 06 AUDIO
    TITLE "Winterfrost"
    PERFORMER "Forsth"
    INDEX 01 23:44:25
    REM REPLAYGAIN_TRACK_GAIN -7.48 dB
    REM REPLAYGAIN_TRACK_PEAK 0.999938
  TRACK 07 AUDIO
    TITLE "Horde of avengers"
    PERFORMER "Forsth"
    INDEX 01 28:24:00
    REM REPLAYGAIN_TRACK_GAIN -8.53 dB
    REM REPLAYGAIN_TRACK_PEAK 0.999938
  TRACK 08 AUDIO
    TITLE "Wolfshowl in the moonshinelight"
    PERFORMER "Forsth"
    INDEX 01 34:51:73
    REM REPLAYGAIN_TRACK_GAIN -8.67 dB
    REM REPLAYGAIN_TRACK_PEAK 0.999938
  TRACK 09 AUDIO
    TITLE "Battles in the dusk"
    PERFORMER "Forsth"
    INDEX 01 40:49:71
    REM REPLAYGAIN_TRACK_GAIN -8.12 dB
    REM REPLAYGAIN_TRACK_PEAK 0.999938
